<svg version="1.0" xmlns="http://www.w3.org/2000/svg"
     width="240" height="240"
     viewBox="0 0 24 24">
  <path
    fill="white"
    d="
      M16.855920,18.521001
      C16.026206,19.982278 14.828639,20.818557 13.173896,21.010609
      C12.532064,21.085103 11.905444,21.284208 11.266446,21.395185
      C11.144046,21.416443 10.926759,21.329380 10.870454,21.227509
      C10.015292,19.680275 9.188303,18.117491 8.335911,16.568697
      C7.897546,15.772190 7.402733,15.006646 6.967770,14.208396
      C6.285799,12.956833 5.648115,11.681093 4.963381,10.431092
      C4.291584,9.204709 3.579605,8.000401 2.895547,6.780637
      C2.662696,6.365432 2.461119,5.932687 2.232814,5.483486
      C2.972688,5.289992 3.696078,5.095537 4.423602,4.918028
      C4.503564,4.898518 4.657587,4.948888 4.692320,5.012921
      C5.168853,5.891452 5.620215,6.783662 6.098438,7.661244
      C6.635746,8.647252 7.193995,9.621851 7.744608,10.604041
      C8.487606,10.050642 8.383610,9.131778 7.868802,8.504343
      C7.266739,7.770564 6.921991,7.012650 7.116676,6.048373
      C7.192153,5.674536 7.196438,5.284914 7.215852,4.901607
      C7.231921,4.584339 7.255933,4.298849 6.878368,4.087103
      C6.409002,3.823874 6.337451,2.880571 6.619092,2.416659
      C6.925070,1.912662 7.552305,1.614050 8.163952,1.793114
      C8.718287,1.955399 9.120537,2.441028 9.101490,3.047540
      C9.085508,3.556468 8.968111,3.976107 8.483797,4.230128
      C8.393726,4.277371 8.267378,4.384629 8.270140,4.460075
      C8.304805,5.406955 7.850563,6.370252 8.295245,7.293932
      C8.480357,7.678441 8.813359,7.991752 9.128727,8.401974
      C9.406233,7.968879 9.681899,7.562160 9.933642,7.141137
      C10.559914,6.093737 11.180333,5.042739 11.791363,3.986395
      C11.937870,3.733114 12.028350,3.505922 11.859685,3.158380
      C11.551753,2.523875 11.949042,1.738743 12.639602,1.478909
      C13.242498,1.252060 14.094977,1.439280 14.371027,2.221895
      C14.602512,2.878167 14.370548,3.797891 13.712285,3.888445
      C12.699649,4.027747 12.521821,4.834409 12.134477,5.465559
      C10.921108,7.442660 9.746856,9.444039 8.583773,11.451266
      C8.478827,11.632379 8.476351,11.969253 8.574463,12.155906
      C9.183293,13.314187 9.858661,14.437590 10.463700,15.597731
      C10.920700,16.474012 11.300479,17.390327 11.726023,18.283394
      C11.855277,18.554651 12.022485,18.807821 12.185650,19.092557
      C13.328898,19.056859 14.333189,18.685477 14.816191,17.474281
      C14.942659,17.157141 15.066546,16.816398 15.081202,16.481661
      C15.118581,15.627899 15.093650,14.771409 15.093650,13.879272
      C13.898446,13.879272 12.735269,13.879272 11.552000,13.879272
      C11.552000,13.179454 11.552000,12.516639 11.552000,11.833095
      C13.476879,11.833095 15.389371,11.833095 17.343540,11.833095
      C17.343540,13.464199 17.385105,15.085323 17.321948,16.702356
      C17.298501,17.302623 17.029521,17.893300 16.855920,18.521001
      z
    "/>
  <path fill="white" stroke="none"
        d="
        M17.634404,8.686905
        C17.204141,9.596417 16.415006,9.607890 15.619808,9.556906
        C14.955388,9.514306 14.460435,9.147815 14.297682,8.515080
        C14.062161,7.599443 14.445764,6.669492 15.524865,6.489235
        C15.957835,6.416909 16.446633,6.500993 16.876217,6.628114
        C17.510545,6.815821 17.737109,7.341232 17.715963,7.974966
        C17.708442,8.200379 17.668892,8.424724 17.634404,8.686905
        z
      "/>
</svg>
